<svg xmlns="http://www.w3.org/2000/svg" width="120" height="120" viewBox="0 0 120 120"><defs><style>.cls-1{fill:#6c3;}</style></defs><title>features-svg ready</title><g id="ab13"><path class="cls-1" d="M60,29a2.4,2.4,0,0,1,1.2.32L86,43.61a2.41,2.41,0,0,1,1.2,2.08V74.31A2.41,2.41,0,0,1,86,76.39L61.2,90.7a2.4,2.4,0,0,1-2.4,0L34,76.39a2.41,2.41,0,0,1-1.2-2.08V45.69A2.41,2.41,0,0,1,34,43.61L58.8,29.3A2.4,2.4,0,0,1,60,29m0-5a7.4,7.4,0,0,0-3.7,1L31.51,39.28a7.4,7.4,0,0,0-3.7,6.41V74.31a7.4,7.4,0,0,0,3.7,6.41L56.3,95a7.4,7.4,0,0,0,7.4,0L88.49,80.72a7.4,7.4,0,0,0,3.7-6.41V45.69a7.4,7.4,0,0,0-3.7-6.41L63.7,25A7.4,7.4,0,0,0,60,24Z"/><path class="cls-1" d="M72.35,53.35l-7.69-7.7A2.23,2.23,0,0,0,63.08,45H49.23A2.23,2.23,0,0,0,47,47.23V72.77A2.23,2.23,0,0,0,49.23,75H61V73H58V69h3V67H58V63h3V61H58V60h4v4H59v2h3v4H59v2h3v3h8.77A2.23,2.23,0,0,0,73,72.77V54.92A2.23,2.23,0,0,0,72.35,53.35ZM63,55V47l8,8Z"/></g></svg>