<svg xmlns="http://www.w3.org/2000/svg" width="120" height="120" viewBox="0 0 120 120"><defs><style>.cls-1{fill:#6c3;}</style></defs><title>features-svg ready</title><g id="ab14"><path class="cls-1" d="M60,29a2.4,2.4,0,0,1,1.2.32L86,43.61a2.41,2.41,0,0,1,1.2,2.08V74.31A2.41,2.41,0,0,1,86,76.39L61.2,90.7a2.4,2.4,0,0,1-2.4,0L34,76.39a2.41,2.41,0,0,1-1.2-2.08V45.69A2.41,2.41,0,0,1,34,43.61L58.8,29.3A2.4,2.4,0,0,1,60,29m0-5a7.4,7.4,0,0,0-3.7,1L31.51,39.28a7.4,7.4,0,0,0-3.7,6.41V74.31a7.4,7.4,0,0,0,3.7,6.41L56.3,95a7.4,7.4,0,0,0,7.4,0L88.49,80.72a7.4,7.4,0,0,0,3.7-6.41V45.69a7.4,7.4,0,0,0-3.7-6.41L63.7,25A7.4,7.4,0,0,0,60,24Z"/><path class="cls-1" d="M65.43,73a17.88,17.88,0,0,0,0-5h4.21a9.74,9.74,0,0,1,0,5m-6.41,6.93a19.49,19.49,0,0,0,1.72-4.43h3.67a10,10,0,0,1-5.39,4.43M62.91,73H57.09a15.67,15.67,0,0,1,0-5h5.83a15.67,15.67,0,0,1,0,5M60,80.41a16.89,16.89,0,0,1-2.38-4.93h4.76A16.89,16.89,0,0,1,60,80.41m-5-14.9H51.38a9.87,9.87,0,0,1,5.38-4.43A21.47,21.47,0,0,0,55,65.52m-3.64,10H55a21.47,21.47,0,0,0,1.74,4.43,10,10,0,0,1-5.38-4.43m-1-2.49a9.74,9.74,0,0,1,0-5h4.21a17.88,17.88,0,0,0,0,5M60,60.57a17,17,0,0,1,2.38,4.95H57.62A17,17,0,0,1,60,60.57m8.62,4.95H64.95a19.49,19.49,0,0,0-1.72-4.43,10,10,0,0,1,5.39,4.43M60,58A12.46,12.46,0,1,0,72.46,70.5,12.47,12.47,0,0,0,60,58Z"/><path class="cls-1" d="M51.57,45.23a1.44,1.44,0,0,0,2,.23l5-4v12.2h2.88V41.48l5,4a1.44,1.44,0,0,0,1.8-2.25L60.9,37.36h0l0,0-.21-.13-.08,0-.2-.07-.08,0A1.44,1.44,0,0,0,60,37h0a1.44,1.44,0,0,0-.28,0l-.08,0-.2.07-.08,0-.21.13,0,0h0l-7.31,5.85A1.44,1.44,0,0,0,51.57,45.23Z"/></g></svg>